<?xml version="1.0" encoding="UTF-8"?>
<!DOCTYPE svg PUBLIC "-//W3C//DTD SVG 1.1//EN" "http://www.w3.org/Graphics/SVG/1.1/DTD/svg11.dtd">
<!-- Creator: CorelDRAW (OEM Version) -->
<svg xmlns="http://www.w3.org/2000/svg" xml:space="preserve" width="254mm" height="254mm" version="1.1" style="shape-rendering:geometricPrecision; text-rendering:geometricPrecision; image-rendering:optimizeQuality; fill-rule:evenodd; clip-rule:evenodd"
viewBox="0 0 25400 25400"
 xmlns:xlink="http://www.w3.org/1999/xlink"
 xmlns:xodm="http://www.corel.com/coreldraw/odm/2003">
 <defs>
  <style type="text/css">
   <![CDATA[
    .fil0 {fill:url(#id0)}
    .fil1 {fill:url(#id1)}
   ]]>
  </style>
  <linearGradient id="id0" gradientUnits="userSpaceOnUse" x1="12700.05" y1="18305.57" x2="12700.05" y2="-1691.14">
   <stop offset="0" style="stop-opacity:1; stop-color:#09627C"/>
   <stop offset="1" style="stop-opacity:0.407843; stop-color:#09627C"/>
  </linearGradient>
  <linearGradient id="id1" gradientUnits="userSpaceOnUse" xlink:href="#id0" x1="12700.05" y1="18305.54" x2="12700.05" y2="-1691.14">
  </linearGradient>
 </defs>
 <g id="Layer_x0020_2">
  <metadata id="CorelCorpID_0Corel-Layer"/>
  <path class="fil0" d="M12700 7176l0 16703.11 -1.37 1.61 -444.97 -503.19 -414.84 -471.36 -5080.78 -6201.48c-270.46,-294.28 -193.27,-106.94 -369.94,-533.3l3184.23 -18.62c10.55,-959.79 43.75,-738.62 -348.84,-1040.86 -311.39,-239.73 -464.52,-400.92 -730.04,-620.96 -1826.24,-1513.54 -1459.97,-689.71 -1457.89,-3166.43 -1696,-29.28 -2979.58,92.98 -4256.53,-765.97 -1658.05,-1115.24 -2363.84,-3292.97 -1510.56,-5238.6 520.97,-1187.98 2511.45,-2929.24 3502.41,-3791.27 -179.16,857.55 -1115.9,2960.19 -1184.89,3577.3 -77.77,695.75 338.03,1390.43 680.05,1645.42 498.38,371.58 1131.4,413.83 1872.98,415.8l6560.98 8.8zm-4293.34 4776.27c223.05,93.98 380.17,237.21 609.18,375.41 268.55,162.1 346.54,232.56 549.18,390.09l2.03 836.28 -812.79 -587.55c-377.7,-290.04 -359.41,-446.89 -347.6,-1014.23zm-3.31 -3376.95c580.52,-85.53 3096.78,-104.37 3620.72,17.67l-10.93 12259.73c-154.61,-177.58 -167.76,-136.04 -343.23,-371.47l-2386.09 -2913.82 1657.01 -54.39c-12.61,-1655.61 49.03,-3377.98 1.17,-5020.64 -14.35,-493.07 -115.25,-550.52 -442.73,-787.05 -711.74,-514.1 -1426.53,-950.63 -2098.84,-1520.37l2.92 -1609.66zm-1364.18 1384.31c-1575.17,-14.3 -2557.6,113.34 -3687.03,-657.85 -525.01,-358.48 -1499.89,-1833.27 -975.24,-2938.75 233.8,299.45 410.28,739.17 648.12,1047.61 926.1,1201.05 2515.05,1134.25 4008,1127.22l6.15 1421.77z"/>
  <path class="fil1" d="M14472.49 7177.32l29.04 1323.76 2498.4 57.43c30.95,2299.27 -20.87,1635.49 -1197,2512.53 -1690.98,1260.96 -1324.21,336.94 -1326.72,3937.12l-1.4 2481.2c493.49,164.81 1140.92,61.39 1678.32,71.1l-2755.44 3304.07 -6.56 -11779.04 -1.07 -1908.58 -690.06 -0.91 0 16703.11 2172.43 -2551.01c476.14,-548.75 3985.68,-4749.96 4171.1,-5143.55l-3210.96 -23.88 8.28 -766.73c843.25,-743.8 1726.01,-1414.09 2513.91,-2058.29l19.25 -2012.49c2050.8,-46.3 3987.16,208.47 5416.5,-1915.06 763.79,-1134.74 919.24,-2677.51 405.49,-3962.17 -324.66,-811.89 -539.53,-984.65 -1039.93,-1474.06 -815.68,-797.77 -1638.88,-1844.32 -2525,-2452.59 453.01,1586.35 1971.06,4059.13 556.59,5192.2 -1270.23,549.97 -4932.68,462.61 -6715.17,465.84zm1364.51 5612.18c257.34,-275.14 892.35,-754.05 1228.77,-845.65 -171.56,620.11 21.71,685.25 -467.04,1076.33l-756.18 575.02 -5.55 -805.7zm2544.28 -4251.31c1123.99,-1.67 2093.05,74.24 3015.81,-358.65 1004.99,-471.44 1023.06,-964.05 1623.27,-1782.44 514.92,1197.52 -419.65,2505.12 -1088.77,2985.76 -950.68,682.89 -2183.45,563.45 -3548.56,571.66l-1.75 -1416.33z"/>
 </g>
</svg>
